<svg id="Laag_1" data-name="Laag 1" xmlns="http://www.w3.org/2000/svg" viewBox="0 0 430.45 129.29"><defs><style>.cls-1{isolation:isolate;}.cls-2{fill:#2473ba;}.cls-3{fill:#185184;}.cls-4{fill:#348ccc;}.cls-5{fill:#f8f7ef;}.cls-6{fill:#fff;}.cls-7{fill:#f4c01f;}.cls-8{fill:#379ad5;}.cls-9{fill:#ccae29;}.cls-10{fill:#deddd1;}</style></defs><g class="cls-1"><polygon class="cls-2" points="5.65 15.04 5.41 93.75 61.09 125.89 61.33 43.2 5.65 15.04"/><path class="cls-3" d="M61.09,125.89l2.6-.73a21.31,21.31,0,0,0,9.8-6.7h0V35.66L61.33,39.85Z"/><path class="cls-4" d="M61.3,44.28a18.67,18.67,0,0,0,9.37-2.52l0,0a5.73,5.73,0,0,0,0-9.94L23.45,4.23l-.93.71c3.4,12.38-15.75,9.25-15.75,9.44L5.65,15,52,41.78A18.6,18.6,0,0,0,61.3,44.28Z"/><path class="cls-5" d="M6.77,14.38,52.52,40.84a17.29,17.29,0,0,0,5,1.94,18.06,18.06,0,0,0,1.79.3,19.1,19.1,0,0,0,2.15.12c.39,0,.78,0,1.17-.05.55,0,1.09-.11,1.62-.2.32-.05.64-.12,1-.19s.9-.22,1.34-.35l.79-.28c.39-.14.78-.29,1.16-.46l.7-.34q.48-.24,1-.51l.05,0h0a4.63,4.63,0,0,0,.56-.39,4.57,4.57,0,0,0,.6-.56l.12-.16a3.54,3.54,0,0,0,.37-.52,3.66,3.66,0,0,0,.41-.9,3.55,3.55,0,0,0,.17-.64,4.61,4.61,0,0,0-2.24-4.88L22.77,5.09l-.25-.15s0,.1,0,.29a7,7,0,0,1-.26,1.69,7.7,7.7,0,0,1-.43,1.17,6.32,6.32,0,0,1-.3.57,7.2,7.2,0,0,1-.54.82,6,6,0,0,1-.41.5,8,8,0,0,1-.71.72l-.51.44c-.28.21-.57.42-.89.62s-.4.25-.62.37-.69.36-1.07.53-.48.21-.73.3-.81.29-1.25.42c-.28.08-.56.16-.86.23-.46.12-.94.21-1.44.3-.32.07-.65.12-1,.16-.52.08-1.07.13-1.63.18-.37,0-.75.06-1.14.08C8.12,14.36,7.46,14.38,6.77,14.38Z"/></g><polygon class="cls-6" points="29.19 78.89 29.1 108.73 43.23 115.86 43.32 86.22 29.19 78.89"/><polygon class="cls-7" points="29.19 78.89 29.11 107.71 42.98 99.42 43.32 86.22 29.19 78.89"/><polygon class="cls-8" points="32.63 95 32.55 123.27 43.23 115.86 43.32 86.17 32.63 95"/><path class="cls-9" d="M63.69,105.87a24.87,24.87,0,0,0,9.8-6.34v1.91a24.87,24.87,0,0,1-9.8,6.34l-2.6.74V106.6Z"/><path class="cls-9" d="M63.69,101.09a24.87,24.87,0,0,0,9.8-6.34v1.91a24.87,24.87,0,0,1-9.8,6.34l-2.6.74v-1.91Z"/><path class="cls-9" d="M63.69,96.31A24.87,24.87,0,0,0,73.49,90v1.92a24.87,24.87,0,0,1-9.8,6.34l-2.6.73V97.05Z"/><path class="cls-10" d="M71.37,39.74v.09a4.66,4.66,0,0,0-1.17-7.1L22.77,5.09l-.25-.15s0,.1,0,.29a7,7,0,0,1-.26,1.69l46.52,27.2A5.32,5.32,0,0,1,71.37,39.74Z"/><path class="cls-10" d="M21.54,8.66,72.26,38.25a3.55,3.55,0,0,0,.17-.64L21.84,8.09A6.32,6.32,0,0,1,21.54,8.66Z"/><path class="cls-10" d="M20.59,10,71.48,39.67a3.54,3.54,0,0,0,.37-.52L21,9.48A6,6,0,0,1,20.59,10Z"/><path class="cls-10" d="M19.37,11.14,70.18,40.79h0a4.63,4.63,0,0,0,.56-.39L19.88,10.7Z"/><path class="cls-10" d="M17.86,12.13,68.47,41.67l.7-.34L18.48,11.76C18.28,11.89,18.08,12,17.86,12.13Z"/><path class="cls-10" d="M16.06,13,66.52,42.41l.79-.28L16.79,12.66C16.55,12.76,16.31,12.87,16.06,13Z"/><path class="cls-10" d="M14,13.61,64.23,43c.32-.05.64-.12,1-.19L14.81,13.38C14.53,13.46,14.25,13.54,14,13.61Z"/><path class="cls-10" d="M11.52,14.07,61.44,43.2c.39,0,.78,0,1.17-.05L12.51,13.91C12.19,14,11.86,14,11.52,14.07Z"/><path class="cls-10" d="M8.75,14.33,57.5,42.78a18.06,18.06,0,0,0,1.79.3L9.89,14.25C9.52,14.29,9.14,14.31,8.75,14.33Z"/><path class="cls-2" d="M130,21.86a3.17,3.17,0,0,1,.85,2.28V57.37a3.4,3.4,0,0,1-3.48,3.47,4.9,4.9,0,0,1-1.56-.25,2.24,2.24,0,0,1-1.12-.71L103.8,33.31V57.65a3.14,3.14,0,0,1-.89,2.28,3.07,3.07,0,0,1-2.31.91,2.9,2.9,0,0,1-2.22-.91,3.19,3.19,0,0,1-.85-2.28V24.42A3.4,3.4,0,0,1,101,20.94a4.32,4.32,0,0,1,1.68.35,2.69,2.69,0,0,1,1.23.91l20.75,26.45V24.14a3.11,3.11,0,0,1,.88-2.28,3,3,0,0,1,2.25-.92A2.93,2.93,0,0,1,130,21.86Z"/><path class="cls-2" d="M166,30.75a3.38,3.38,0,0,1,1,2.51V57.37a3.41,3.41,0,0,1-1,2.48,3.53,3.53,0,0,1-4.87,0,3.61,3.61,0,0,1-1-2.46,12.29,12.29,0,0,1-9,4,13,13,0,0,1-7.12-2,14.24,14.24,0,0,1-5-5.61,17.59,17.59,0,0,1-1.85-8.15A18,18,0,0,1,139,37.45a14,14,0,0,1,5-5.65,12.69,12.69,0,0,1,7-2,13.07,13.07,0,0,1,5.13,1,13.42,13.42,0,0,1,4.05,2.53v-.05a3.39,3.39,0,0,1,1-2.48,3.26,3.26,0,0,1,2.45-1A3.29,3.29,0,0,1,166,30.75Zm-7.92,21.69a10.06,10.06,0,0,0,2.34-6.81,10.14,10.14,0,0,0-2.34-6.84,8,8,0,0,0-12,0,10.14,10.14,0,0,0-2.34,6.84A10.14,10.14,0,0,0,146,52.44a8.08,8.08,0,0,0,12.06,0Z"/><path class="cls-2" d="M202.06,30.75a3.38,3.38,0,0,1,1,2.51V57.37a3.41,3.41,0,0,1-1,2.48,3.53,3.53,0,0,1-4.87,0,3.61,3.61,0,0,1-1-2.46,12.29,12.29,0,0,1-8.95,4,13,13,0,0,1-7.12-2,14.24,14.24,0,0,1-5.05-5.61,17.59,17.59,0,0,1-1.85-8.15A18,18,0,0,1,175,37.45a14,14,0,0,1,5-5.65,12.69,12.69,0,0,1,7-2,13.07,13.07,0,0,1,5.13,1,13.42,13.42,0,0,1,4.05,2.53v-.05a3.39,3.39,0,0,1,1-2.48,3.26,3.26,0,0,1,2.45-1A3.29,3.29,0,0,1,202.06,30.75Zm-7.92,21.69a10.06,10.06,0,0,0,2.34-6.81,10.14,10.14,0,0,0-2.34-6.84,8,8,0,0,0-12,0,10.14,10.14,0,0,0-2.34,6.84,10.14,10.14,0,0,0,2.31,6.81,8.08,8.08,0,0,0,12.06,0Z"/><path class="cls-2" d="M229.16,30.75A2.88,2.88,0,0,1,230.33,33a3.52,3.52,0,0,1-.91,2.65,3,3,0,0,1-2.17.88,5.55,5.55,0,0,1-1.93-.4l-.77-.22a4.47,4.47,0,0,0-1.29-.18,5.1,5.1,0,0,0-2.85.92,6.7,6.7,0,0,0-2.25,2.76,10.19,10.19,0,0,0-.88,4.42V57.37a3.41,3.41,0,0,1-1,2.48,3.53,3.53,0,0,1-4.9,0,3.41,3.41,0,0,1-1-2.48V33.83a3.39,3.39,0,0,1,1-2.48,3.5,3.5,0,0,1,4.9,0,3.39,3.39,0,0,1,1,2.48v.74A8.57,8.57,0,0,1,221,31a11.55,11.55,0,0,1,5.25-1.23A4.3,4.3,0,0,1,229.16,30.75Z"/><path class="cls-2" d="M257.24,60.39a16.88,16.88,0,0,1-6-3.48,4,4,0,0,1-1.54-3,3.22,3.22,0,0,1,1-2.31,3.18,3.18,0,0,1,2.34-1,3,3,0,0,1,1.94.69A16.73,16.73,0,0,0,259.4,54a14,14,0,0,0,5.13.86,10.17,10.17,0,0,0,5.5-1.43,4.11,4.11,0,0,0,2.31-3.53,4.53,4.53,0,0,0-2.28-4,19.22,19.22,0,0,0-7.24-2.19q-12.48-1.83-12.48-11.63a10.54,10.54,0,0,1,1.88-6.24,11.81,11.81,0,0,1,5.13-4.05,18.19,18.19,0,0,1,7.24-1.4,20.76,20.76,0,0,1,6.75,1.09,16.37,16.37,0,0,1,5.28,2.85,3.8,3.8,0,0,1,1.65,3,3.22,3.22,0,0,1-1,2.31,3.1,3.1,0,0,1-2.28,1,2.52,2.52,0,0,1-1.54-.51,14.84,14.84,0,0,0-4.13-2.19,13.63,13.63,0,0,0-4.76-1A9.82,9.82,0,0,0,259,28.27a4.25,4.25,0,0,0,.06,7.21,19.1,19.1,0,0,0,6.35,2.05,32.65,32.65,0,0,1,7.84,2.2,10,10,0,0,1,4.42,3.64,11.22,11.22,0,0,1,1.48,6.13,10.21,10.21,0,0,1-2,6.3A13,13,0,0,1,271.77,60a18,18,0,0,1-7.24,1.45A23.91,23.91,0,0,1,257.24,60.39Z"/><path class="cls-2" d="M306.26,31.29q3,1.51,3,4a3.45,3.45,0,0,1-.74,2.19,2.35,2.35,0,0,1-1.94.94,3.65,3.65,0,0,1-1.48-.25A5.08,5.08,0,0,1,304,37.5a8.52,8.52,0,0,0-1.06-.71,7.08,7.08,0,0,0-1.68-.51,9.57,9.57,0,0,0-1.79-.23,8.61,8.61,0,0,0-6.7,2.65,9.86,9.86,0,0,0-2.42,6.93,9.75,9.75,0,0,0,2.45,6.81,8.08,8.08,0,0,0,6.27,2.7,9.67,9.67,0,0,0,4.16-.68,6.71,6.71,0,0,0,.94-.6,6.72,6.72,0,0,1,1.11-.65,3.1,3.1,0,0,1,1.25-.23,2.87,2.87,0,0,1,2.25.91,3.17,3.17,0,0,1-.76,4.9,12.43,12.43,0,0,1-4.22,1.91,21,21,0,0,1-5.59.71,14.39,14.39,0,0,1-7.72-2,13.88,13.88,0,0,1-5.16-5.67,17.59,17.59,0,0,1-1.82-8.06,17.24,17.24,0,0,1,1.9-8.21,14.08,14.08,0,0,1,5.33-5.62,14.94,14.94,0,0,1,7.76-2A17.23,17.23,0,0,1,306.26,31.29Z"/><path class="cls-2" d="M338.35,33.23q2.16,3.45,2.16,9.55V57.37a3.41,3.41,0,0,1-1,2.48,3.53,3.53,0,0,1-4.9,0,3.41,3.41,0,0,1-1-2.48V42.78a8.68,8.68,0,0,0-1.22-4.93q-1.23-1.8-4.31-1.8a6.49,6.49,0,0,0-5,1.91,6.74,6.74,0,0,0-1.8,4.82V57.37a3.41,3.41,0,0,1-1,2.48,3.53,3.53,0,0,1-4.9,0,3.41,3.41,0,0,1-1-2.48V22.14a3.41,3.41,0,0,1,1-2.48,3.5,3.5,0,0,1,4.9,0,3.41,3.41,0,0,1,1,2.48v12.6a14.05,14.05,0,0,1,3.9-3.51,9.89,9.89,0,0,1,5.28-1.45Q336.18,29.78,338.35,33.23Z"/><path class="cls-2" d="M375.17,53.81a14.5,14.5,0,0,1-5.62,5.61,16.48,16.48,0,0,1-15.7,0,14.56,14.56,0,0,1-5.59-5.61,16.39,16.39,0,0,1-2.05-8.18,16.37,16.37,0,0,1,2.05-8.18,14.73,14.73,0,0,1,5.59-5.65,16.26,16.26,0,0,1,15.7,0,14.67,14.67,0,0,1,5.62,5.65,16.26,16.26,0,0,1,2.05,8.18A16.29,16.29,0,0,1,375.17,53.81Zm-6-13.17a8.56,8.56,0,0,0-3.13-3.39,8.52,8.52,0,0,0-8.72,0,8.52,8.52,0,0,0-3.14,3.39,10.41,10.41,0,0,0-1.17,5,10.23,10.23,0,0,0,1.17,4.95A8.59,8.59,0,0,0,357.36,54a8.58,8.58,0,0,0,8.72,0,8.64,8.64,0,0,0,3.13-3.37,10.23,10.23,0,0,0,1.17-4.95A10.41,10.41,0,0,0,369.21,40.64Z"/><path class="cls-2" d="M410.17,53.81a14.5,14.5,0,0,1-5.62,5.61,16.48,16.48,0,0,1-15.7,0,14.56,14.56,0,0,1-5.59-5.61,16.29,16.29,0,0,1-2.05-8.18,16.26,16.26,0,0,1,2.05-8.18,14.73,14.73,0,0,1,5.59-5.65,16.26,16.26,0,0,1,15.7,0,14.67,14.67,0,0,1,5.62,5.65,16.37,16.37,0,0,1,2.05,8.18A16.39,16.39,0,0,1,410.17,53.81Zm-6-13.17a8.52,8.52,0,0,0-3.14-3.39,8.52,8.52,0,0,0-8.72,0,8.56,8.56,0,0,0-3.13,3.39,10.41,10.41,0,0,0-1.17,5,10.23,10.23,0,0,0,1.17,4.95A8.64,8.64,0,0,0,392.35,54a8.58,8.58,0,0,0,8.72,0,8.59,8.59,0,0,0,3.14-3.37,10.23,10.23,0,0,0,1.17-4.95A10.41,10.41,0,0,0,404.21,40.64Z"/><path class="cls-2" d="M424.33,59.85a3.37,3.37,0,0,1-2.48,1,3.2,3.2,0,0,1-2.39-1,3.41,3.41,0,0,1-1-2.48V22.14A3.42,3.42,0,0,1,422,18.66a3.24,3.24,0,0,1,2.39,1,3.41,3.41,0,0,1,1,2.48V57.37A3.35,3.35,0,0,1,424.33,59.85Z"/><path class="cls-2" d="M97.3,80.3a2.38,2.38,0,0,1-.7-2v-1a2.24,2.24,0,0,1,.75-1.94,4.08,4.08,0,0,1,2.4-.56,4,4,0,0,1,2.45.56,2.31,2.31,0,0,1,.7,1.94v1a2.3,2.3,0,0,1-.72,2,4.36,4.36,0,0,1-2.48.53A4,4,0,0,1,97.3,80.3ZM101.9,110a2.87,2.87,0,0,1-2.15.88A2.9,2.9,0,0,1,97.6,110a3,3,0,0,1-.85-2.17V87.14A3,3,0,0,1,97.6,85a2.89,2.89,0,0,1,2.15-.87,2.86,2.86,0,0,1,2.15.87,3,3,0,0,1,.85,2.17V107.8A3,3,0,0,1,101.9,110Z"/><path class="cls-2" d="M130.25,86.62q2,3,1.95,8.37V107.8a3,3,0,0,1-.85,2.17,2.87,2.87,0,0,1-2.15.88,2.9,2.9,0,0,1-2.15-.88,3,3,0,0,1-.85-2.17V95a7.17,7.17,0,0,0-1.15-4.32c-.76-1-2.08-1.57-4-1.57a6.09,6.09,0,0,0-4.55,1.67A5.78,5.78,0,0,0,114.9,95V107.8a3,3,0,0,1-.85,2.17,2.87,2.87,0,0,1-2.15.88,2.9,2.9,0,0,1-2.15-.88,3,3,0,0,1-.85-2.17V87.14a3,3,0,0,1,.85-2.17,2.89,2.89,0,0,1,2.15-.87,2.86,2.86,0,0,1,2.15.87,3,3,0,0,1,.85,2.17V88a12.29,12.29,0,0,1,3.53-3.1,9.18,9.18,0,0,1,4.77-1.29C126.6,83.6,129,84.6,130.25,86.62Z"/><path class="cls-2" d="M180.93,76.6a2.65,2.65,0,0,1,.92,2,3.37,3.37,0,0,1-.3,1.35l-12.35,28.9a3.33,3.33,0,0,1-1.25,1.46,3,3,0,0,1-4.4-1.4L151.2,80A2.9,2.9,0,0,1,151,78.7a2.71,2.71,0,0,1,1-2.18A3.2,3.2,0,0,1,154,75.7a2.78,2.78,0,0,1,1.6.5,3.09,3.09,0,0,1,1.15,1.44L166.8,101.3,176,77.64a3.31,3.31,0,0,1,1.15-1.4,2.88,2.88,0,0,1,1.6-.5A3.11,3.11,0,0,1,180.93,76.6Z"/><path class="cls-2" d="M192.23,110a3,3,0,0,1-2.18.88A2.84,2.84,0,0,1,188,110a3,3,0,0,1-.85-2.17V76.89a3,3,0,0,1,3.05-3,2.8,2.8,0,0,1,2.1.87,3,3,0,0,1,.85,2.17V107.8A3,3,0,0,1,192.23,110Z"/><path class="cls-2" d="M223.9,84.45a2.93,2.93,0,0,1,.85,2.19V107.8a3,3,0,0,1-.85,2.17,2.87,2.87,0,0,1-2.15.88,2.83,2.83,0,0,1-2.12-.86,3.15,3.15,0,0,1-.88-2.14,10.87,10.87,0,0,1-7.85,3.5,11.47,11.47,0,0,1-6.25-1.78,12.45,12.45,0,0,1-4.42-4.93,15.37,15.37,0,0,1-1.63-7.15,15.82,15.82,0,0,1,1.6-7.17,12.29,12.29,0,0,1,4.38-4.95,11.15,11.15,0,0,1,6.12-1.77,11.93,11.93,0,0,1,8.05,3.1v-.06a3,3,0,0,1,.85-2.17,3.12,3.12,0,0,1,4.3,0Zm-7,19a8.81,8.81,0,0,0,2.05-6,8.93,8.93,0,0,0-2.05-6,7,7,0,0,0-10.55,0,9.81,9.81,0,0,0,0,12,7.06,7.06,0,0,0,10.57,0Z"/><path class="cls-2" d="M255.55,84.45a2.93,2.93,0,0,1,.85,2.19V107.8a3,3,0,0,1-.85,2.17,2.87,2.87,0,0,1-2.15.88,2.83,2.83,0,0,1-2.12-.86,3.15,3.15,0,0,1-.88-2.14,10.87,10.87,0,0,1-7.85,3.5,11.47,11.47,0,0,1-6.25-1.78,12.45,12.45,0,0,1-4.42-4.93,15.25,15.25,0,0,1-1.63-7.15,15.82,15.82,0,0,1,1.6-7.17,12.29,12.29,0,0,1,4.38-4.95,11.15,11.15,0,0,1,6.12-1.77,11.93,11.93,0,0,1,8.05,3.1v-.06a3,3,0,0,1,.85-2.17,3.12,3.12,0,0,1,4.3,0Zm-7,19a8.81,8.81,0,0,0,2.05-6,8.93,8.93,0,0,0-2.05-6,7,7,0,0,0-10.55,0,9.81,9.81,0,0,0,0,12,7.06,7.06,0,0,0,10.57,0Z"/><path class="cls-2" d="M284.25,86.62q2,3,1.95,8.37V107.8a3,3,0,0,1-.85,2.17,2.87,2.87,0,0,1-2.15.88,2.9,2.9,0,0,1-2.15-.88,3,3,0,0,1-.85-2.17V95a7.17,7.17,0,0,0-1.15-4.32c-.76-1-2.08-1.57-3.95-1.57a6.09,6.09,0,0,0-4.55,1.67A5.78,5.78,0,0,0,268.9,95V107.8a3,3,0,0,1-.85,2.17,2.87,2.87,0,0,1-2.15.88,2.9,2.9,0,0,1-2.15-.88,3,3,0,0,1-.85-2.17V87.14a3,3,0,0,1,.85-2.17,2.89,2.89,0,0,1,2.15-.87,2.86,2.86,0,0,1,2.15.87,3,3,0,0,1,.85,2.17V88a12.29,12.29,0,0,1,3.53-3.1,9.18,9.18,0,0,1,4.77-1.29C280.6,83.6,283,84.6,284.25,86.62Z"/><path class="cls-2" d="M316.5,74.7a2.93,2.93,0,0,1,.85,2.19V107.8a3,3,0,0,1-.85,2.17,2.89,2.89,0,0,1-2.15.88,2.83,2.83,0,0,1-2.12-.86,3.15,3.15,0,0,1-.88-2.14,10.87,10.87,0,0,1-7.85,3.5,11.47,11.47,0,0,1-6.25-1.78,12.45,12.45,0,0,1-4.42-4.93,15.25,15.25,0,0,1-1.63-7.15,15.82,15.82,0,0,1,1.6-7.17,12.29,12.29,0,0,1,4.38-4.95,11.15,11.15,0,0,1,6.12-1.77,11.93,11.93,0,0,1,8.05,3.1V76.89a3,3,0,0,1,.85-2.17,3.12,3.12,0,0,1,4.3,0Zm-6.95,28.77a8.81,8.81,0,0,0,2.05-6,8.93,8.93,0,0,0-2.05-6,7,7,0,0,0-10.55,0,9.81,9.81,0,0,0,0,12,6.62,6.62,0,0,0,5.27,2.38A6.69,6.69,0,0,0,309.55,103.47Z"/><path class="cls-2" d="M346.9,98.8a3.18,3.18,0,0,1-2.1.75H328.3a7.57,7.57,0,0,0,2.75,4.62,7.67,7.67,0,0,0,4.85,1.68,10.72,10.72,0,0,0,3.2-.38,8.48,8.48,0,0,0,1.83-.8l.92-.57a3.85,3.85,0,0,1,1.7-.46,2.45,2.45,0,0,1,1.8.75,2.41,2.41,0,0,1,.75,1.75,3.11,3.11,0,0,1-1.4,2.46,12.15,12.15,0,0,1-3.75,2,15.49,15.49,0,0,1-12.07-1,12.2,12.2,0,0,1-4.83-4.83,14.11,14.11,0,0,1-1.7-6.92,15.3,15.3,0,0,1,1.8-7.55,12.75,12.75,0,0,1,4.75-5,12.29,12.29,0,0,1,6.3-1.72,11.77,11.77,0,0,1,6.23,1.79,13.58,13.58,0,0,1,4.67,4.85,13,13,0,0,1,1.75,6.61A2.57,2.57,0,0,1,346.9,98.8Zm-18.55-4.25h13.1V94.2a5.13,5.13,0,0,0-2.05-3.6,6.48,6.48,0,0,0-4.2-1.5Q329.4,89.1,328.35,94.55Z"/><path class="cls-2" d="M369.28,84.45a2.52,2.52,0,0,1,1,2,3.11,3.11,0,0,1-.8,2.32,2.63,2.63,0,0,1-1.9.78,5.05,5.05,0,0,1-1.7-.35l-.67-.21a4.12,4.12,0,0,0-1.13-.14,4.45,4.45,0,0,0-2.5.79,5.86,5.86,0,0,0-2,2.43,8.89,8.89,0,0,0-.78,3.88V107.8A3,3,0,0,1,358,110a3.07,3.07,0,0,1-4.3,0,3,3,0,0,1-.85-2.17V87.14A3,3,0,0,1,353.7,85a3.09,3.09,0,0,1,4.3,0,3,3,0,0,1,.85,2.17v.66a7.62,7.62,0,0,1,3.3-3.13,10.1,10.1,0,0,1,4.6-1.07A3.83,3.83,0,0,1,369.28,84.45Z"/><path class="cls-2" d="M396.5,98.8a3.18,3.18,0,0,1-2.1.75H377.9a7.57,7.57,0,0,0,2.75,4.62,7.67,7.67,0,0,0,4.85,1.68,10.72,10.72,0,0,0,3.2-.38,8.48,8.48,0,0,0,1.83-.8l.92-.57a3.85,3.85,0,0,1,1.7-.46,2.45,2.45,0,0,1,1.8.75,2.41,2.41,0,0,1,.75,1.75,3.14,3.14,0,0,1-1.4,2.46,12.15,12.15,0,0,1-3.75,2,15.49,15.49,0,0,1-12.07-1,12.2,12.2,0,0,1-4.83-4.83,14.11,14.11,0,0,1-1.7-6.92,15.3,15.3,0,0,1,1.8-7.55,12.75,12.75,0,0,1,4.75-5,12.29,12.29,0,0,1,6.3-1.72A11.77,11.77,0,0,1,391,85.39a13.58,13.58,0,0,1,4.67,4.85,13,13,0,0,1,1.75,6.61A2.57,2.57,0,0,1,396.5,98.8ZM378,94.55h13.1V94.2A5.17,5.17,0,0,0,389,90.6a6.48,6.48,0,0,0-4.2-1.5Q379,89.1,378,94.55Z"/><path class="cls-2" d="M423.8,86.62q1.95,3,1.95,8.37V107.8a3,3,0,0,1-.85,2.17,3.07,3.07,0,0,1-4.3,0,3,3,0,0,1-.85-2.17V95a7.17,7.17,0,0,0-1.15-4.32c-.77-1-2.08-1.57-4-1.57a6.09,6.09,0,0,0-4.55,1.67A5.78,5.78,0,0,0,408.45,95V107.8a3,3,0,0,1-.85,2.17,3.07,3.07,0,0,1-4.3,0,3,3,0,0,1-.85-2.17V87.14A3,3,0,0,1,403.3,85a3.09,3.09,0,0,1,4.3,0,3,3,0,0,1,.85,2.17V88a12.25,12.25,0,0,1,3.52-3.1,9.21,9.21,0,0,1,4.78-1.29C420.15,83.6,422.5,84.6,423.8,86.62Z"/></svg>